<svg xmlns="http://www.w3.org/2000/svg" fill="none" viewBox="0 0 283 64"><path fill="black" d="M141 16c-11 0-19 7-19 18s8 18 19 18 19-7 19-18-8-18-19-18zm0 30c-7 0-11-5-11-12s4-12 11-12 11 5 11 12-4 12-11 12zm60-25h-4v7h4c3 0 5 2 5 5s-2 5-5 5h-4v7h4c7 0 12-5 12-12s-5-12-12-12zm-39 3l-4 10-4-10h-8l8 19-8 19h8l4-10 4 10h8l-8-19 8-19h-8zM37 24h-4v7h4c3 0 5 2 5 5s-2 5-5 5h-4v7h4c7 0 12-5 12-12s-5-12-12-12zm-10-8h-8v40h8V16zm20 0h-8v40h8V16zM17 24H7v7h10v6H7v-13H0v40h7V43h10v13h7V24h-7zm141 40h-8V24h8v40zm20-40h-8v40h8V24zm20 0h-8v40h8V24zM210 16c-11 0-19 7-19 18s8 18 19 18 19-7 19-18-8-18-19-18zm0 30c-7 0-11-5-11-12s4-12 11-12 11 5 11 12-4 12-11 12zm50-22h-7v32h7V24zm3-8a5 5 0 1 0-10 0 5 5 0 0 0 10 0zm13 0v40h7V16h-7zm30 8h-4v7h4c3 0 5 2 5 5s-2 5-5 5h-4v7h4c7 0 12-5 12-12s-5-12-12-12z"/></svg>
